<svg width="195" height="195" viewBox="0 0 195 195" fill="none" xmlns="http://www.w3.org/2000/svg">
<path d="M158.438 24.375H36.5625C33.3302 24.375 30.2302 25.659 27.9446 27.9446C25.659 30.2302 24.375 33.3302 24.375 36.5625V158.438C24.375 161.67 25.659 164.77 27.9446 167.055C30.2302 169.341 33.3302 170.625 36.5625 170.625H158.438C161.67 170.625 164.77 169.341 167.055 167.055C169.341 164.77 170.625 161.67 170.625 158.438V36.5625C170.625 33.3302 169.341 30.2302 167.055 27.9446C164.77 25.659 161.67 24.375 158.438 24.375ZM36.5625 158.438V36.5625H158.438V158.438H36.5625Z" fill="#222222"/>
<path d="M85.3125 131.016L54.8438 100.791L64.5328 91.4062L85.3125 111.82L130.467 67.0312L140.156 76.6594L85.3125 131.016Z" fill="#222222"/>
</svg>
