<svg width="95" height="95" viewBox="0 0 95 95" fill="none" xmlns="http://www.w3.org/2000/svg">
<path d="M83.9583 0.625H11.0417C5.3125 0.625 0.625 5.3125 0.625 11.0417V83.9583C0.625 89.6875 5.3125 94.375 11.0417 94.375H83.9583C89.6875 94.375 94.375 89.6875 94.375 83.9583V11.0417C94.375 5.3125 89.6875 0.625 83.9583 0.625ZM83.9583 57.9167H65.4167C63.5417 57.9167 61.875 58.9063 60.9375 60.5208C58.2292 65.2083 53.2813 68.3333 47.5 68.3333C41.7188 68.3333 36.7708 65.2083 34.0625 60.5208C33.608 59.7337 32.9555 59.0791 32.1697 58.6223C31.3839 58.1654 30.4923 57.9222 29.5833 57.9167H11.0417V11.0417H83.9583V57.9167ZM62.0313 37.0833H52.7083V21.4583C52.7083 18.5938 50.3646 16.25 47.5 16.25C44.6354 16.25 42.2917 18.5938 42.2917 21.4583V37.0833H32.9688C30.625 37.0833 29.4792 39.8958 31.1458 41.5104L45.6771 56.0417C46.7187 57.0833 48.3333 57.0833 49.375 56.0417L63.9062 41.5104C64.2662 41.1433 64.5093 40.6778 64.6051 40.1726C64.7009 39.6675 64.645 39.1453 64.4445 38.6718C64.244 38.1984 63.9078 37.7949 63.4784 37.5122C63.0489 37.2296 62.5454 37.0803 62.0313 37.0833Z" fill="#222222"/>
</svg>
