<svg width="125" height="125" viewBox="0 0 125 125" fill="none" xmlns="http://www.w3.org/2000/svg">
<path d="M31.25 104.167C25.5208 104.167 20.6163 102.127 16.5364 98.0469C12.4566 93.967 10.4166 89.0625 10.4166 83.3333C10.4166 77.6042 12.4566 72.6997 16.5364 68.6198C20.6163 64.5399 25.5208 62.5 31.25 62.5C35.4166 62.5 39.2569 63.6285 42.7708 65.8854C46.2847 68.1424 48.8246 71.224 50.3906 75.1302L51.6927 78.125H54.8177C58.4635 78.125 61.5243 79.3837 64 81.901C66.4757 84.4184 67.7118 87.5 67.7083 91.1458C67.7083 94.7917 66.4496 97.8733 63.9323 100.391C61.4149 102.908 58.3333 104.167 54.6875 104.167H31.25ZM77.9948 89.5833C77.6475 84.1146 75.6736 79.3837 72.0729 75.3906C68.4722 71.3976 63.9357 68.9236 58.4635 67.9687C55.7725 63.2812 52.1493 59.5694 47.5937 56.8333C43.0382 54.0972 38.0243 52.5139 32.552 52.0833C34.809 45.7465 38.6718 40.6892 44.1406 36.9115C49.6093 33.1337 55.7291 31.2465 62.5 31.25C71.1805 31.25 78.559 34.2882 84.6354 40.3646C90.7118 46.441 93.75 53.8194 93.75 62.5C93.75 68.1424 92.3611 73.3733 89.5833 78.1927C86.8055 83.0121 82.9427 86.809 77.9948 89.5833ZM57.2916 26.0417V5.20833H67.7083V26.0417H57.2916ZM91.927 40.3646L84.6354 33.0729L99.2187 18.2292L106.641 25.651L91.927 40.3646ZM98.9583 67.7083V57.2917H119.792V67.7083H98.9583ZM99.2187 106.771L84.6354 91.9271L91.927 84.6354L106.771 99.2187L99.2187 106.771ZM33.0729 40.3646L18.3593 25.651L25.7812 18.2292L40.3645 33.0729L33.0729 40.3646Z" fill="#222222"/>
</svg>
