<svg width="108" height="108" viewBox="0 0 108 108" fill="none" xmlns="http://www.w3.org/2000/svg">
<path d="M106.244 64.4485C105.706 63.9102 105.033 63.5284 104.295 63.344C103.557 63.1595 102.783 63.1795 102.056 63.4016C94.0714 65.8155 85.5814 66.0179 77.4908 63.9872C69.4002 61.9566 62.012 57.769 56.1137 51.8706C50.2153 45.9722 46.0277 38.5841 43.997 30.4935C41.9663 22.4028 42.1687 13.9129 44.5826 5.92819C44.8066 5.20063 44.8281 4.42575 44.6447 3.6869C44.4612 2.94805 44.0799 2.27319 43.5415 1.73488C43.0032 1.19658 42.3284 0.815202 41.5895 0.631769C40.8507 0.448337 40.0758 0.46979 39.3482 0.69382C28.3091 4.07546 18.6177 10.8527 11.6532 20.061C5.5625 28.1474 1.84736 37.7719 0.925118 47.8533C0.00287456 57.9347 1.91007 68.0736 6.43243 77.1308C10.9548 86.188 17.9132 93.8048 26.5258 99.1254C35.1384 104.446 45.064 107.26 55.1875 107.25C66.998 107.286 78.4943 103.447 87.9128 96.3206C97.1211 89.3561 103.898 79.6647 107.28 68.6255C107.501 67.9007 107.522 67.1293 107.339 66.3937C107.157 65.6581 106.778 64.9858 106.244 64.4485ZM82.8773 89.6311C74.0079 96.3115 63.0238 99.5632 51.9471 98.7876C40.8704 98.012 30.4467 93.2613 22.5948 85.4101C14.7429 77.5588 9.99133 67.1354 9.21483 56.0588C8.43833 44.9822 11.6892 33.9978 18.3689 25.1279C22.7207 19.3809 28.347 14.7222 34.8048 11.5185C34.4369 14.1002 34.2515 16.7047 34.25 19.3125C34.2652 33.7455 40.0055 47.5831 50.2112 57.7888C60.4169 67.9945 74.2544 73.7348 88.6875 73.75C91.3005 73.7492 93.9102 73.5638 96.4971 73.1952C93.2905 79.6541 88.6281 85.2804 82.8773 89.6311Z" fill="#DAD7CD"/>
</svg>
