<svg width="110" height="110" viewBox="0 0 110 110" fill="none" xmlns="http://www.w3.org/2000/svg">
<path d="M42.3958 100.833L40.5625 86.1666C39.5694 85.7847 38.6329 85.3264 37.7529 84.7917C36.8729 84.2569 36.0143 83.684 35.1771 83.0729L21.5417 88.8021L8.9375 67.0312L20.7396 58.0937C20.6632 57.559 20.625 57.0426 20.625 56.5446V53.4554C20.625 52.9573 20.6632 52.441 20.7396 51.9062L8.9375 42.9687L21.5417 21.1979L35.1771 26.9271C36.0174 26.316 36.8958 25.743 37.8125 25.2083C38.7292 24.6736 39.6458 24.2153 40.5625 23.8333L42.3958 9.16666H67.6042L69.4375 23.8333C70.4306 24.2153 71.3671 24.6736 72.2471 25.2083C73.1271 25.743 73.9857 26.316 74.8229 26.9271L88.4583 21.1979L101.062 42.9687L89.2604 51.9062C89.3368 52.441 89.375 52.9573 89.375 53.4554V56.5446C89.375 57.0426 89.2986 57.559 89.1458 58.0937L100.948 67.0312L88.3437 88.8021L74.8229 83.0729C73.9826 83.684 73.1042 84.2569 72.1875 84.7917C71.2708 85.3264 70.3542 85.7847 69.4375 86.1666L67.6042 100.833H42.3958ZM55.2292 71.0417C59.6597 71.0417 63.441 69.4757 66.5729 66.3437C69.7049 63.2118 71.2708 59.4305 71.2708 55C71.2708 50.5694 69.7049 46.7882 66.5729 43.6562C63.441 40.5243 59.6597 38.9583 55.2292 38.9583C50.7222 38.9583 46.9211 40.5243 43.8258 43.6562C40.7306 46.7882 39.1844 50.5694 39.1875 55C39.1875 59.4305 40.7336 63.2118 43.8258 66.3437C46.9181 69.4757 50.7192 71.0417 55.2292 71.0417Z" fill="#222222"/>
</svg>
