<svg width="100" height="100" viewBox="0 0 135 135" fill="none" xmlns="http://www.w3.org/2000/svg">
<g clip-path="url(#clip0_2_29)">
<path d="M36.3462 0C33.4852 0 31.1538 2.33135 31.1538 5.19231V20.7692C31.1538 23.6302 33.4852 25.9615 36.3462 25.9615C39.2071 25.9615 41.5385 23.6302 41.5385 20.7692V5.19231C41.5385 2.33135 39.2071 0 36.3462 0ZM98.6538 0C95.7929 0 93.4615 2.33135 93.4615 5.19231V20.7692C93.4615 23.6302 95.7929 25.9615 98.6538 25.9615C101.515 25.9615 103.846 23.6302 103.846 20.7692V5.19231C103.846 2.33135 101.515 0 98.6538 0ZM15.5769 10.3846C6.97846 10.3846 0 17.3631 0 25.9615V119.423C0 128.022 6.97846 135 15.5769 135H119.423C128.022 135 135 128.022 135 119.423V25.9615C135 17.3631 128.022 10.3846 119.423 10.3846H109.038V20.7692C109.038 23.5234 107.944 26.1648 105.997 28.1123C104.049 30.0598 101.408 31.1538 98.6538 31.1538C95.8997 31.1538 93.2583 30.0598 91.3108 28.1123C89.3633 26.1648 88.2692 23.5234 88.2692 20.7692V10.3846H46.7308V20.7692C46.7308 23.5234 45.6367 26.1648 43.6892 28.1123C41.7417 30.0598 39.1003 31.1538 36.3462 31.1538C33.592 31.1538 30.9506 30.0598 29.0031 28.1123C27.0556 26.1648 25.9615 23.5234 25.9615 20.7692V10.3846H15.5769ZM10.3846 46.7308H124.615V119.423C124.615 122.284 122.284 124.615 119.423 124.615H15.5769C12.716 124.615 10.3846 122.284 10.3846 119.423V46.7308ZM87.7812 57.9254C87.3859 57.9995 87.0097 58.1526 86.6751 58.3757C86.3405 58.5988 86.0544 58.8871 85.834 59.2235L60.3606 96.8677L48.5169 85.185C48.2298 84.8961 47.8884 84.6669 47.5124 84.5105C47.1363 84.354 46.733 84.2735 46.3258 84.2735C45.9185 84.2735 45.5152 84.354 45.1392 84.5105C44.7631 84.6669 44.4217 84.8961 44.1346 85.185L39.5913 89.5673C38.9992 90.1752 38.6678 90.9903 38.6678 91.8389C38.6678 92.6876 38.9992 93.5027 39.5913 94.1106L57.6035 112.123C58.616 113.125 60.2256 113.904 61.6587 113.904C63.0917 113.904 64.6287 112.99 65.5529 111.635L96.2187 66.3629C96.6922 65.6743 96.873 64.8258 96.7211 64.004C96.5692 63.1822 96.0971 62.4544 95.4086 61.9806L90.2163 58.4135C89.4982 57.9421 88.6255 57.7672 87.7812 57.9254ZM4683.46 7627.5V7637.88H4818.46V7627.5H4683.46ZM4704.23 7653.46V7663.85H4797.69V7653.46H4704.23ZM4683.46 7679.42V7689.81H4818.46V7679.42H4683.46ZM4704.23 7705.38V7715.77H4797.69V7705.38H4704.23ZM4683.46 7731.35V7741.73H4818.46V7731.35H4683.46Z" fill="#222222"/>
</g>
<defs>
<clipPath id="clip0_2_29">
<rect width="135" height="135" fill="white"/>
</clipPath>
</defs>
</svg>
