<svg width="124" height="125" viewBox="0 0 124 125" fill="none" xmlns="http://www.w3.org/2000/svg">
<path d="M36.1666 109.375C33.325 109.375 30.8915 108.354 28.8661 106.313C26.8408 104.271 25.8299 101.819 25.8333 98.9583V31.25C24.3694 31.25 23.1415 30.75 22.1495 29.75C21.1575 28.75 20.6632 27.5139 20.6666 26.0417C20.6666 24.566 21.1626 23.3281 22.1546 22.3281C23.1466 21.3281 24.3729 20.8299 25.8333 20.8333H46.5C46.5 19.3576 46.996 18.1198 47.988 17.1198C48.98 16.1198 50.2062 15.6215 51.6666 15.625H72.3333C73.7972 15.625 75.0251 16.125 76.0171 17.125C77.0091 18.125 77.5034 19.3611 77.5 20.8333H98.1666C99.6305 20.8333 100.858 21.3333 101.85 22.3333C102.842 23.3333 103.337 24.5694 103.333 26.0417C103.333 27.5174 102.837 28.7552 101.845 29.7552C100.853 30.7552 99.6271 31.2535 98.1666 31.25V98.9583C98.1666 101.823 97.154 104.276 95.1286 106.318C93.1033 108.359 90.6715 109.378 87.8333 109.375H36.1666ZM56.8333 61.7188V78.125C56.8333 79.6007 57.3293 80.8385 58.3213 81.8385C59.3133 82.8385 60.5395 83.3368 62 83.3333C63.4639 83.3333 64.6918 82.8333 65.6838 81.8333C66.6758 80.8333 67.1701 79.5972 67.1666 78.125V61.7188L71.8166 66.276C72.85 67.2309 74.0779 67.6875 75.5005 67.6458C76.923 67.6042 78.1062 67.1042 79.05 66.1458C79.9972 65.191 80.4708 63.9757 80.4708 62.5C80.4708 61.0243 79.9972 59.809 79.05 58.8542L65.6166 45.3125C64.6694 44.3576 63.4639 43.8802 62 43.8802C60.5361 43.8802 59.3305 44.3576 58.3833 45.3125L44.95 58.8542C44.0028 59.809 43.5291 61.0243 43.5291 62.5C43.5291 63.9757 44.0028 65.191 44.95 66.1458C45.8972 67.1007 47.0821 67.6007 48.5046 67.6458C49.9272 67.691 51.1534 67.2344 52.1833 66.276L56.8333 61.7188Z" fill="#222222"/>
</svg>
