<svg width="158" height="158" viewBox="0 0 158 158" fill="none" xmlns="http://www.w3.org/2000/svg">
<path d="M73.7333 21.0667V5.26667C73.7333 3.86986 74.2882 2.53026 75.2759 1.54257C76.2636 0.554879 77.6032 0 79 0C80.3968 0 81.7364 0.554879 82.7241 1.54257C83.7118 2.53026 84.2667 3.86986 84.2667 5.26667V21.0667C84.2667 22.4635 83.7118 23.8031 82.7241 24.7908C81.7364 25.7785 80.3968 26.3333 79 26.3333C77.6032 26.3333 76.2636 25.7785 75.2759 24.7908C74.2882 23.8031 73.7333 22.4635 73.7333 21.0667ZM121.133 79C121.133 87.3332 118.662 95.4792 114.033 102.408C109.403 109.337 102.823 114.737 95.1237 117.926C87.4249 121.115 78.9533 121.949 70.7802 120.324C62.6071 118.698 55.0997 114.685 49.2072 108.793C43.3148 102.9 39.302 95.3929 37.6762 87.2198C36.0505 79.0467 36.8849 70.5751 40.0739 62.8763C43.2629 55.1774 48.6632 48.5971 55.592 43.9674C62.5208 39.3377 70.6668 36.8667 79 36.8667C90.1707 36.8789 100.88 41.3218 108.779 49.2207C116.678 57.1196 121.121 67.8293 121.133 79ZM110.6 79C110.6 72.7501 108.747 66.6406 105.274 61.444C101.802 56.2474 96.8669 52.1971 91.0928 49.8054C85.3187 47.4137 78.965 46.7879 72.8351 48.0072C66.7053 49.2265 61.0748 52.2361 56.6554 56.6554C52.2361 61.0748 49.2265 66.7053 48.0072 72.8351C46.7879 78.965 47.4137 85.3187 49.8054 91.0928C52.1971 96.8669 56.2474 101.802 61.444 105.274C66.6406 108.747 72.7501 110.6 79 110.6C87.3782 110.591 95.4107 107.259 101.335 101.335C107.259 95.4107 110.591 87.3782 110.6 79ZM33.1405 40.5928C34.1287 41.5811 35.4691 42.1363 36.8667 42.1363C38.2643 42.1363 39.6046 41.5811 40.5928 40.5928C41.5811 39.6046 42.1363 38.2643 42.1363 36.8667C42.1363 35.4691 41.5811 34.1287 40.5928 33.1405L30.0595 22.6072C29.0713 21.6189 27.7309 21.0637 26.3333 21.0637C24.9358 21.0637 23.5954 21.6189 22.6072 22.6072C21.6189 23.5954 21.0637 24.9358 21.0637 26.3333C21.0637 27.7309 21.6189 29.0713 22.6072 30.0595L33.1405 40.5928ZM33.1405 117.407L22.6072 127.941C21.6189 128.929 21.0637 130.269 21.0637 131.667C21.0637 133.064 21.6189 134.405 22.6072 135.393C23.5954 136.381 24.9358 136.936 26.3333 136.936C27.7309 136.936 29.0713 136.381 30.0595 135.393L40.5928 124.86C41.0822 124.37 41.4703 123.789 41.7351 123.15C42 122.511 42.1363 121.825 42.1363 121.133C42.1363 120.441 42 119.756 41.7351 119.117C41.4703 118.477 41.0822 117.896 40.5928 117.407C40.1035 116.918 39.5226 116.53 38.8833 116.265C38.2439 116 37.5587 115.864 36.8667 115.864C36.1747 115.864 35.4894 116 34.8501 116.265C34.2107 116.53 33.6298 116.918 33.1405 117.407ZM121.133 42.1333C121.825 42.1339 122.51 41.9981 123.15 41.7338C123.789 41.4695 124.37 41.0818 124.86 40.5928L135.393 30.0595C136.381 29.0713 136.936 27.7309 136.936 26.3333C136.936 24.9358 136.381 23.5954 135.393 22.6072C134.405 21.6189 133.064 21.0637 131.667 21.0637C130.269 21.0637 128.929 21.6189 127.941 22.6072L117.407 33.1405C116.67 33.8771 116.168 34.8159 115.964 35.8381C115.76 36.8602 115.865 37.9198 116.264 38.8827C116.663 39.8456 117.338 40.6684 118.205 41.2471C119.072 41.8257 120.091 42.1342 121.133 42.1333ZM124.86 117.407C123.871 116.419 122.531 115.864 121.133 115.864C119.736 115.864 118.395 116.419 117.407 117.407C116.419 118.395 115.864 119.736 115.864 121.133C115.864 122.531 116.419 123.871 117.407 124.86L127.941 135.393C128.43 135.882 129.011 136.27 129.65 136.535C130.289 136.8 130.975 136.936 131.667 136.936C132.359 136.936 133.044 136.8 133.683 136.535C134.323 136.27 134.904 135.882 135.393 135.393C135.882 134.904 136.27 134.323 136.535 133.683C136.8 133.044 136.936 132.359 136.936 131.667C136.936 130.975 136.8 130.289 136.535 129.65C136.27 129.011 135.882 128.43 135.393 127.941L124.86 117.407ZM26.3333 79C26.3333 77.6032 25.7785 76.2636 24.7908 75.2759C23.8031 74.2882 22.4635 73.7333 21.0667 73.7333H5.26667C3.86986 73.7333 2.53026 74.2882 1.54257 75.2759C0.554879 76.2636 0 77.6032 0 79C0 80.3968 0.554879 81.7364 1.54257 82.7241C2.53026 83.7118 3.86986 84.2667 5.26667 84.2667H21.0667C22.4635 84.2667 23.8031 83.7118 24.7908 82.7241C25.7785 81.7364 26.3333 80.3968 26.3333 79ZM79 131.667C77.6032 131.667 76.2636 132.222 75.2759 133.209C74.2882 134.197 73.7333 135.537 73.7333 136.933V152.733C73.7333 154.13 74.2882 155.47 75.2759 156.457C76.2636 157.445 77.6032 158 79 158C80.3968 158 81.7364 157.445 82.7241 156.457C83.7118 155.47 84.2667 154.13 84.2667 152.733V136.933C84.2667 135.537 83.7118 134.197 82.7241 133.209C81.7364 132.222 80.3968 131.667 79 131.667ZM152.733 73.7333H136.933C135.537 73.7333 134.197 74.2882 133.209 75.2759C132.222 76.2636 131.667 77.6032 131.667 79C131.667 80.3968 132.222 81.7364 133.209 82.7241C134.197 83.7118 135.537 84.2667 136.933 84.2667H152.733C154.13 84.2667 155.47 83.7118 156.457 82.7241C157.445 81.7364 158 80.3968 158 79C158 77.6032 157.445 76.2636 156.457 75.2759C155.47 74.2882 154.13 73.7333 152.733 73.7333Z" fill="#222222"/>
</svg>
